<svg width="55" height="55" viewBox="0 0 55 55" fill="none" xmlns="http://www.w3.org/2000/svg">
<rect width="55" height="55" fill="white"/>
<path d="M27.5 25.2083L35.75 22.2292C38.9583 21.3125 41.25 18.3333 41.25 14.8958V6.875H13.75V14.8958C13.75 18.3333 16.0417 21.3125 19.25 22.2292L27.5 25.2083ZM27.5 25.2083L35.75 28.1875C38.9583 29.1042 41.25 32.0833 41.25 35.5208V43.5417C41.25 46.0625 39.1875 48.125 36.6667 48.125H18.3333C15.8125 48.125 13.75 46.0625 13.75 43.5417V35.5208C13.75 32.0833 16.0417 29.1042 19.25 28.1875L27.5 25.2083Z" stroke="black" stroke-linecap="round" stroke-linejoin="round"/>
<path opacity="0.3" d="M16.5 10H38.5V14.5C38.5 16.9 37.125 19 35.2 19.6L27.5 22L19.8 16.6C17.875 19 16.5 16.9 16.5 14.5V10Z" fill="black"/>
<path opacity="0.6" d="M27.1836 39.6729L27.4219 39.8672L27.7031 39.7422L35.3721 36.3271C36.4528 35.9982 37.362 35.2774 38 34.3301V44.5H17V37.8574C17 35.8596 18.1419 34.1539 19.6982 33.5625L27.1836 39.6729Z" fill="black" stroke="black"/>
</svg>
